<svg id="visual" viewBox="0 0 900 200" width="900" height="200" xmlns="http://www.w3.org/2000/svg" xmlns:xlink="http://www.w3.org/1999/xlink" version="1.1"><rect x="0" y="0" width="900" height="200" fill="#ffffff"></rect><path d="M0 35L6.3 34C12.7 33 25.3 31 37.8 30.5C50.3 30 62.7 31 75.2 33.7C87.7 36.3 100.3 40.7 112.8 42.3C125.3 44 137.7 43 150.2 45.2C162.7 47.3 175.3 52.7 187.8 52.2C200.3 51.7 212.7 45.3 225.2 44.5C237.7 43.7 250.3 48.3 262.8 50C275.3 51.7 287.7 50.3 300.2 45.2C312.7 40 325.3 31 337.8 32.2C350.3 33.3 362.7 44.7 375.2 46.8C387.7 49 400.3 42 412.8 40.3C425.3 38.7 437.7 42.3 450 44.3C462.3 46.3 474.7 46.7 487.2 47.7C499.7 48.7 512.3 50.3 525 48.7C537.7 47 550.3 42 562.8 36.3C575.3 30.7 587.7 24.3 600.2 27.2C612.7 30 625.3 42 637.8 42.8C650.3 43.7 662.7 33.3 675.2 28C687.7 22.7 700.3 22.3 712.8 23.3C725.3 24.3 737.7 26.7 750.2 32.3C762.7 38 775.3 47 787.8 51.3C800.3 55.7 812.7 55.3 825.2 52.3C837.7 49.3 850.3 43.7 862.8 41.2C875.3 38.7 887.7 39.3 893.8 39.7L900 40L900 0L893.8 0C887.7 0 875.3 0 862.8 0C850.3 0 837.7 0 825.2 0C812.7 0 800.3 0 787.8 0C775.3 0 762.7 0 750.2 0C737.7 0 725.3 0 712.8 0C700.3 0 687.7 0 675.2 0C662.7 0 650.3 0 637.8 0C625.3 0 612.7 0 600.2 0C587.7 0 575.3 0 562.8 0C550.3 0 537.7 0 525 0C512.3 0 499.7 0 487.2 0C474.7 0 462.3 0 450 0C437.7 0 425.3 0 412.8 0C400.3 0 387.7 0 375.2 0C362.7 0 350.3 0 337.8 0C325.3 0 312.7 0 300.2 0C287.7 0 275.3 0 262.8 0C250.3 0 237.7 0 225.2 0C212.7 0 200.3 0 187.8 0C175.3 0 162.7 0 150.2 0C137.7 0 125.3 0 112.8 0C100.3 0 87.7 0 75.2 0C62.7 0 50.3 0 37.8 0C25.3 0 12.7 0 6.3 0L0 0Z" fill="#B2DFDB" stroke-linecap="round" stroke-linejoin="miter"></path></svg>