<svg id="visual" viewBox="0 0 900 250" width="900" height="250" xmlns="http://www.w3.org/2000/svg" xmlns:xlink="http://www.w3.org/1999/xlink" version="1.1"><rect x="0" y="0" width="900" height="250" fill="#ffffff"></rect><path d="M0 225L8.3 224.5C16.7 224 33.3 223 50 223.3C66.7 223.7 83.3 225.3 100 226.2C116.7 227 133.3 227 150 221.3C166.7 215.7 183.3 204.3 200 201C216.7 197.7 233.3 202.3 250 208.3C266.7 214.3 283.3 221.7 300 222.2C316.7 222.7 333.3 216.3 350 210.3C366.7 204.3 383.3 198.7 400 198.5C416.7 198.3 433.3 203.7 450 209.7C466.7 215.7 483.3 222.3 500 221.5C516.7 220.7 533.3 212.3 550 207.8C566.7 203.3 583.3 202.7 600 202.3C616.7 202 633.3 202 650 203.5C666.7 205 683.3 208 700 206.5C716.7 205 733.3 199 750 199.2C766.7 199.3 783.3 205.7 800 208.2C816.7 210.7 833.3 209.3 850 212.2C866.7 215 883.3 222 891.7 225.5L900 229L900 251L891.7 251C883.3 251 866.7 251 850 251C833.3 251 816.7 251 800 251C783.3 251 766.7 251 750 251C733.3 251 716.7 251 700 251C683.3 251 666.7 251 650 251C633.3 251 616.7 251 600 251C583.3 251 566.7 251 550 251C533.3 251 516.7 251 500 251C483.3 251 466.7 251 450 251C433.3 251 416.7 251 400 251C383.3 251 366.7 251 350 251C333.3 251 316.7 251 300 251C283.3 251 266.7 251 250 251C233.3 251 216.7 251 200 251C183.3 251 166.7 251 150 251C133.3 251 116.7 251 100 251C83.3 251 66.7 251 50 251C33.3 251 16.7 251 8.3 251L0 251Z" fill="#B2DFDB" stroke-linecap="round" stroke-linejoin="miter"></path></svg>