<svg id="visual" viewBox="0 0 900 250" width="900" height="250" xmlns="http://www.w3.org/2000/svg" xmlns:xlink="http://www.w3.org/1999/xlink" version="1.1"><rect x="0" y="0" width="900" height="250" fill="#ffffff"></rect><path d="M0 214L21.5 210.2C43 206.3 86 198.7 128.8 194.3C171.7 190 214.3 189 257.2 190.3C300 191.7 343 195.3 385.8 194.5C428.7 193.7 471.3 188.3 514.2 191.8C557 195.3 600 207.7 642.8 210.3C685.7 213 728.3 206 771.2 202.8C814 199.7 857 200.3 878.5 200.7L900 201L900 251L878.5 251C857 251 814 251 771.2 251C728.3 251 685.7 251 642.8 251C600 251 557 251 514.2 251C471.3 251 428.7 251 385.8 251C343 251 300 251 257.2 251C214.3 251 171.7 251 128.8 251C86 251 43 251 21.5 251L0 251Z" fill="#000000" stroke-linecap="round" stroke-linejoin="miter"></path></svg>