<svg id="visual" viewBox="0 0 1024 768" width="1024" height="768" xmlns="http://www.w3.org/2000/svg" xmlns:xlink="http://www.w3.org/1999/xlink" version="1.1"><rect x="0" y="0" width="1024" height="768" fill="#fdfdfd"></rect><path d="M0 377L9.5 380.3C19 383.7 38 390.3 57 395C76 399.7 95 402.3 114 392C133 381.7 152 358.3 171 347.5C190 336.7 209 338.3 227.8 335.8C246.7 333.3 265.3 326.7 284.2 326.5C303 326.3 322 332.7 341 337.2C360 341.7 379 344.3 398 341.2C417 338 436 329 455 322.5C474 316 493 312 512 322C531 332 550 356 569 370.8C588 385.7 607 391.3 626 382.8C645 374.3 664 351.7 683 340.5C702 329.3 721 329.7 739.8 329.3C758.7 329 777.3 328 796.2 335C815 342 834 357 853 352.8C872 348.7 891 325.3 910 314.5C929 303.7 948 305.3 967 313.8C986 322.3 1005 337.7 1014.5 345.3L1024 353L1024 0L1014.5 0C1005 0 986 0 967 0C948 0 929 0 910 0C891 0 872 0 853 0C834 0 815 0 796.2 0C777.3 0 758.7 0 739.8 0C721 0 702 0 683 0C664 0 645 0 626 0C607 0 588 0 569 0C550 0 531 0 512 0C493 0 474 0 455 0C436 0 417 0 398 0C379 0 360 0 341 0C322 0 303 0 284.2 0C265.3 0 246.7 0 227.8 0C209 0 190 0 171 0C152 0 133 0 114 0C95 0 76 0 57 0C38 0 19 0 9.5 0L0 0Z" fill="#00796b"></path><path d="M0 329L9.5 317C19 305 38 281 57 278.7C76 276.3 95 295.7 114 303.2C133 310.7 152 306.3 171 301C190 295.7 209 289.3 227.8 282.5C246.7 275.7 265.3 268.3 284.2 267.2C303 266 322 271 341 279C360 287 379 298 398 306.3C417 314.7 436 320.3 455 308C474 295.7 493 265.3 512 251.3C531 237.3 550 239.7 569 241.5C588 243.3 607 244.7 626 252.7C645 260.7 664 275.3 683 275.7C702 276 721 262 739.8 264.5C758.7 267 777.3 286 796.2 297.7C815 309.3 834 313.7 853 318.2C872 322.7 891 327.3 910 321.5C929 315.7 948 299.3 967 291C986 282.7 1005 282.3 1014.5 282.2L1024 282L1024 0L1014.5 0C1005 0 986 0 967 0C948 0 929 0 910 0C891 0 872 0 853 0C834 0 815 0 796.2 0C777.3 0 758.7 0 739.8 0C721 0 702 0 683 0C664 0 645 0 626 0C607 0 588 0 569 0C550 0 531 0 512 0C493 0 474 0 455 0C436 0 417 0 398 0C379 0 360 0 341 0C322 0 303 0 284.2 0C265.3 0 246.7 0 227.8 0C209 0 190 0 171 0C152 0 133 0 114 0C95 0 76 0 57 0C38 0 19 0 9.5 0L0 0Z" fill="#008072"></path><path d="M0 241L9.5 242.3C19 243.7 38 246.3 57 237.5C76 228.7 95 208.3 114 208.8C133 209.3 152 230.7 171 239.5C190 248.3 209 244.7 227.8 236.2C246.7 227.7 265.3 214.3 284.2 208.5C303 202.7 322 204.3 341 202C360 199.7 379 193.3 398 190.2C417 187 436 187 455 188C474 189 493 191 512 193.7C531 196.3 550 199.7 569 207.3C588 215 607 227 626 234.2C645 241.3 664 243.7 683 233.8C702 224 721 202 739.8 201.3C758.7 200.7 777.3 221.3 796.2 219.7C815 218 834 194 853 182C872 170 891 170 910 184.2C929 198.3 948 226.7 967 240.3C986 254 1005 253 1014.5 252.5L1024 252L1024 0L1014.5 0C1005 0 986 0 967 0C948 0 929 0 910 0C891 0 872 0 853 0C834 0 815 0 796.2 0C777.3 0 758.7 0 739.8 0C721 0 702 0 683 0C664 0 645 0 626 0C607 0 588 0 569 0C550 0 531 0 512 0C493 0 474 0 455 0C436 0 417 0 398 0C379 0 360 0 341 0C322 0 303 0 284.2 0C265.3 0 246.7 0 227.8 0C209 0 190 0 171 0C152 0 133 0 114 0C95 0 76 0 57 0C38 0 19 0 9.5 0L0 0Z" fill="#008779"></path><path d="M0 152L9.5 146.8C19 141.7 38 131.3 57 129.7C76 128 95 135 114 145.8C133 156.7 152 171.3 171 174.8C190 178.3 209 170.7 227.8 169.8C246.7 169 265.3 175 284.2 175.3C303 175.7 322 170.3 341 164.3C360 158.3 379 151.7 398 152C417 152.3 436 159.7 455 154.3C474 149 493 131 512 128.2C531 125.3 550 137.7 569 145.8C588 154 607 158 626 159.2C645 160.3 664 158.7 683 149.2C702 139.7 721 122.3 739.8 127C758.7 131.7 777.3 158.3 796.2 163.7C815 169 834 153 853 148.8C872 144.7 891 152.3 910 152.7C929 153 948 146 967 149.2C986 152.3 1005 165.7 1014.5 172.3L1024 179L1024 0L1014.5 0C1005 0 986 0 967 0C948 0 929 0 910 0C891 0 872 0 853 0C834 0 815 0 796.2 0C777.3 0 758.7 0 739.8 0C721 0 702 0 683 0C664 0 645 0 626 0C607 0 588 0 569 0C550 0 531 0 512 0C493 0 474 0 455 0C436 0 417 0 398 0C379 0 360 0 341 0C322 0 303 0 284.2 0C265.3 0 246.7 0 227.8 0C209 0 190 0 171 0C152 0 133 0 114 0C95 0 76 0 57 0C38 0 19 0 9.5 0L0 0Z" fill="#008e80"></path><path d="M0 80L9.5 84.2C19 88.3 38 96.7 57 99.5C76 102.3 95 99.7 114 89.8C133 80 152 63 171 57.8C190 52.7 209 59.3 227.8 64.8C246.7 70.3 265.3 74.7 284.2 74.2C303 73.7 322 68.3 341 67.8C360 67.3 379 71.7 398 68.7C417 65.7 436 55.3 455 54.5C474 53.7 493 62.3 512 71.8C531 81.3 550 91.7 569 88.7C588 85.7 607 69.3 626 62.5C645 55.7 664 58.3 683 61.8C702 65.3 721 69.7 739.8 73.8C758.7 78 777.3 82 796.2 79C815 76 834 66 853 70C872 74 891 92 910 95.5C929 99 948 88 967 78C986 68 1005 59 1014.5 54.5L1024 50L1024 0L1014.5 0C1005 0 986 0 967 0C948 0 929 0 910 0C891 0 872 0 853 0C834 0 815 0 796.2 0C777.3 0 758.7 0 739.8 0C721 0 702 0 683 0C664 0 645 0 626 0C607 0 588 0 569 0C550 0 531 0 512 0C493 0 474 0 455 0C436 0 417 0 398 0C379 0 360 0 341 0C322 0 303 0 284.2 0C265.3 0 246.7 0 227.8 0C209 0 190 0 171 0C152 0 133 0 114 0C95 0 76 0 57 0C38 0 19 0 9.5 0L0 0Z" fill="#009688"></path></svg>