<svg id="visual" viewBox="0 0 1024 768" width="1024" height="768" xmlns="http://www.w3.org/2000/svg" xmlns:xlink="http://www.w3.org/1999/xlink" version="1.1"><rect x="0" y="0" width="1024" height="768" fill="#fdfdfd"></rect><path d="M0 188L9.5 189.7C19 191.3 38 194.7 57 197C76 199.3 95 200.7 114 195.5C133 190.3 152 178.7 171 173.3C190 168 209 169 227.8 167.7C246.7 166.3 265.3 162.7 284.2 162.5C303 162.3 322 165.7 341 168C360 170.3 379 171.7 398 170C417 168.3 436 163.7 455 160.3C474 157 493 155 512 160.2C531 165.3 550 177.7 569 185.2C588 192.7 607 195.3 626 191C645 186.7 664 175.3 683 169.8C702 164.3 721 164.7 739.8 164.5C758.7 164.3 777.3 163.7 796.2 167C815 170.3 834 177.7 853 175.5C872 173.3 891 161.7 910 156.3C929 151 948 152 967 156.3C986 160.7 1005 168.3 1014.5 172.2L1024 176L1024 0L1014.5 0C1005 0 986 0 967 0C948 0 929 0 910 0C891 0 872 0 853 0C834 0 815 0 796.2 0C777.3 0 758.7 0 739.8 0C721 0 702 0 683 0C664 0 645 0 626 0C607 0 588 0 569 0C550 0 531 0 512 0C493 0 474 0 455 0C436 0 417 0 398 0C379 0 360 0 341 0C322 0 303 0 284.2 0C265.3 0 246.7 0 227.8 0C209 0 190 0 171 0C152 0 133 0 114 0C95 0 76 0 57 0C38 0 19 0 9.5 0L0 0Z" fill="#00796b"></path><path d="M0 164L9.5 158C19 152 38 140 57 138.8C76 137.7 95 147.3 114 151C133 154.7 152 152.3 171 149.7C190 147 209 144 227.8 140.7C246.7 137.3 265.3 133.7 284.2 133C303 132.3 322 134.7 341 138.7C360 142.7 379 148.3 398 152.5C417 156.7 436 159.3 455 153.2C474 147 493 132 512 125C531 118 550 119 569 120C588 121 607 122 626 126.2C645 130.3 664 137.7 683 137.8C702 138 721 131 739.8 132.2C758.7 133.3 777.3 142.7 796.2 148.5C815 154.3 834 156.7 853 159C872 161.3 891 163.7 910 160.7C929 157.7 948 149.3 967 145.2C986 141 1005 141 1014.5 141L1024 141L1024 0L1014.5 0C1005 0 986 0 967 0C948 0 929 0 910 0C891 0 872 0 853 0C834 0 815 0 796.2 0C777.3 0 758.7 0 739.8 0C721 0 702 0 683 0C664 0 645 0 626 0C607 0 588 0 569 0C550 0 531 0 512 0C493 0 474 0 455 0C436 0 417 0 398 0C379 0 360 0 341 0C322 0 303 0 284.2 0C265.3 0 246.7 0 227.8 0C209 0 190 0 171 0C152 0 133 0 114 0C95 0 76 0 57 0C38 0 19 0 9.5 0L0 0Z" fill="#008072"></path><path d="M0 120L9.5 120.7C19 121.3 38 122.7 57 118.3C76 114 95 104 114 104.3C133 104.7 152 115.3 171 119.7C190 124 209 122 227.8 117.7C246.7 113.3 265.3 106.7 284.2 103.8C303 101 322 102 341 100.8C360 99.7 379 96.3 398 94.7C417 93 436 93 455 93.5C474 94 493 95 512 96.3C531 97.7 550 99.3 569 103.2C588 107 607 113 626 116.5C645 120 664 121 683 116C702 111 721 100 739.8 99.8C758.7 99.7 777.3 110.3 796.2 109.7C815 109 834 97 853 91C872 85 891 85 910 92C929 99 948 113 967 119.8C986 126.7 1005 126.3 1014.5 126.2L1024 126L1024 0L1014.5 0C1005 0 986 0 967 0C948 0 929 0 910 0C891 0 872 0 853 0C834 0 815 0 796.2 0C777.3 0 758.7 0 739.8 0C721 0 702 0 683 0C664 0 645 0 626 0C607 0 588 0 569 0C550 0 531 0 512 0C493 0 474 0 455 0C436 0 417 0 398 0C379 0 360 0 341 0C322 0 303 0 284.2 0C265.3 0 246.7 0 227.8 0C209 0 190 0 171 0C152 0 133 0 114 0C95 0 76 0 57 0C38 0 19 0 9.5 0L0 0Z" fill="#008779"></path><path d="M0 76L9.5 73.3C19 70.7 38 65.3 57 64.5C76 63.7 95 67.3 114 72.8C133 78.3 152 85.7 171 87.3C190 89 209 85 227.8 84.5C246.7 84 265.3 87 284.2 87.2C303 87.3 322 84.7 341 81.7C360 78.7 379 75.3 398 75.5C417 75.7 436 79.3 455 76.7C474 74 493 65 512 63.7C531 62.3 550 68.7 569 72.8C588 77 607 79 626 79.5C645 80 664 79 683 74.2C702 69.3 721 60.7 739.8 63C758.7 65.3 777.3 78.7 796.2 81.3C815 84 834 76 853 74C872 72 891 76 910 76.2C929 76.3 948 72.7 967 74.2C986 75.7 1005 82.3 1014.5 85.7L1024 89L1024 0L1014.5 0C1005 0 986 0 967 0C948 0 929 0 910 0C891 0 872 0 853 0C834 0 815 0 796.2 0C777.3 0 758.7 0 739.8 0C721 0 702 0 683 0C664 0 645 0 626 0C607 0 588 0 569 0C550 0 531 0 512 0C493 0 474 0 455 0C436 0 417 0 398 0C379 0 360 0 341 0C322 0 303 0 284.2 0C265.3 0 246.7 0 227.8 0C209 0 190 0 171 0C152 0 133 0 114 0C95 0 76 0 57 0C38 0 19 0 9.5 0L0 0Z" fill="#008e80"></path><path d="M0 39L9.5 41.2C19 43.3 38 47.7 57 49.2C76 50.7 95 49.3 114 44.5C133 39.7 152 31.3 171 28.7C190 26 209 29 227.8 31.7C246.7 34.3 265.3 36.7 284.2 36.5C303 36.3 322 33.7 341 33.5C360 33.3 379 35.7 398 34.2C417 32.7 436 27.3 455 26.8C474 26.3 493 30.7 512 35.5C531 40.3 550 45.7 569 44.2C588 42.7 607 34.3 626 30.8C645 27.3 664 28.7 683 30.5C702 32.3 721 34.7 739.8 36.8C758.7 39 777.3 41 796.2 39.3C815 37.7 834 32.3 853 34.2C872 36 891 45 910 46.8C929 48.7 948 43.3 967 38.3C986 33.3 1005 28.7 1014.5 26.3L1024 24L1024 0L1014.5 0C1005 0 986 0 967 0C948 0 929 0 910 0C891 0 872 0 853 0C834 0 815 0 796.2 0C777.3 0 758.7 0 739.8 0C721 0 702 0 683 0C664 0 645 0 626 0C607 0 588 0 569 0C550 0 531 0 512 0C493 0 474 0 455 0C436 0 417 0 398 0C379 0 360 0 341 0C322 0 303 0 284.2 0C265.3 0 246.7 0 227.8 0C209 0 190 0 171 0C152 0 133 0 114 0C95 0 76 0 57 0C38 0 19 0 9.5 0L0 0Z" fill="#009688"></path></svg>