<svg id="visual" viewBox="0 0 900 250" width="900" height="250" xmlns="http://www.w3.org/2000/svg" xmlns:xlink="http://www.w3.org/1999/xlink" version="1.1"><rect x="0" y="0" width="900" height="250" fill="#FFFFFF"></rect><path d="M0 24L21.5 26.8C43 29.7 86 35.3 128.8 39.5C171.7 43.7 214.3 46.3 257.2 46C300 45.7 343 42.3 385.8 43C428.7 43.7 471.3 48.3 514.2 46C557 43.7 600 34.3 642.8 28.5C685.7 22.7 728.3 20.3 771.2 24.5C814 28.7 857 39.3 878.5 44.7L900 50L900 0L878.5 0C857 0 814 0 771.2 0C728.3 0 685.7 0 642.8 0C600 0 557 0 514.2 0C471.3 0 428.7 0 385.8 0C343 0 300 0 257.2 0C214.3 0 171.7 0 128.8 0C86 0 43 0 21.5 0L0 0Z" fill="#BDBDBD" stroke-linecap="round" stroke-linejoin="miter"></path></svg>