<svg
  id="visual"
  viewBox="0 0 900 250"
  width="900"
  height="250"
  xmlns="http://www.w3.org/2000/svg"
  xmlns:xlink="http://www.w3.org/1999/xlink"
  version="1.1"
>
  <rect x="0" y="0" width="900" height="250" fill="#ffffff"></rect>
  <path
    d="M0 76L22.8 84.2C45.7 92.3 91.3 108.7 137 117.8C182.7 127 228.3 129 274 126.2C319.7 123.3 365.3 115.7 411.2 117.3C457 119 503 130 548.8 122.2C594.7 114.3 640.3 87.7 686 82C731.7 76.3 777.3 91.7 823 98.7C868.7 105.7 914.3 104.3 937.2 103.7L960 103L960 0L937.2 0C914.3 0 868.7 0 823 0C777.3 0 731.7 0 686 0C640.3 0 594.7 0 548.8 0C503 0 457 0 411.2 0C365.3 0 319.7 0 274 0C228.3 0 182.7 0 137 0C91.3 0 45.7 0 22.8 0L0 0Z"
    fill="#FFC107"
    stroke-linecap="round"
    stroke-linejoin="miter"
  ></path>
</svg>
