<svg id="visual" viewBox="0 0 900 250" width="900" height="250" xmlns="http://www.w3.org/2000/svg" xmlns:xlink="http://www.w3.org/1999/xlink" version="1.1"><rect x="0" y="0" width="900" height="250" fill="rgb(0.0.0)"></rect><path d="M0 224L21.5 221.2C43 218.3 86 212.7 128.8 208.5C171.7 204.3 214.3 201.7 257.2 202C300 202.3 343 205.7 385.8 205C428.7 204.3 471.3 199.7 514.2 202C557 204.3 600 213.7 642.8 219.5C685.7 225.3 728.3 227.7 771.2 223.5C814 219.3 857 208.7 878.5 203.3L900 198L900 251L878.5 251C857 251 814 251 771.2 251C728.3 251 685.7 251 642.8 251C600 251 557 251 514.2 251C471.3 251 428.7 251 385.8 251C343 251 300 251 257.2 251C214.3 251 171.7 251 128.8 251C86 251 43 251 21.5 251L0 251Z" fill="#BDBDBD" stroke-linecap="round" stroke-linejoin="miter"></path></svg>