<svg id="visual" viewBox="0 0 900 300" width="900" height="300" xmlns="http://www.w3.org/2000/svg" xmlns:xlink="http://www.w3.org/1999/xlink" version="1.1">
  <rect x="0" y="0" width="900" height="300" fill="rgb(0.0.0)"></rect>
  <path d="M0 184L18.8 200.7C37.7 217.3 75.3 250.7 112.8 241.7C150.3 232.7 187.7 181.3 225.2 160.5C262.7 139.7 300.3 149.3 337.8 164.5C375.3 179.7 412.7 200.3 450.2 202.5C487.7 204.7 525.3 188.3 562.8 178.2C600.3 168 637.7 164 675.2 181.3C712.7 198.7 750.3 237.3 787.8 240.8C825.3 244.3 862.7 212.7 881.3 196.8L900 181L900 0L881.3 0C862.7 0 825.3 0 787.8 0C750.3 0 712.7 0 675.2 0C637.7 0 600.3 0 562.8 0C525.3 0 487.7 0 450.2 0C412.7 0 375.3 0 337.8 0C300.3 0 262.7 0 225.2 0C187.7 0 150.3 0 112.8 0C75.3 0 37.7 0 18.8 0L0 0Z" fill="#009688" stroke-linecap="round" stroke-linejoin="miter"></path>
</svg>
