<svg
  id="visual"
  viewBox="0 0 900 250"
  width="900"
  height="250"
  xmlns="http://www.w3.org/2000/svg"
  xmlns:xlink="http://www.w3.org/1999/xlink"
  version="1.1"
>
  <rect x="0" y="0" width="900" height="250" fill="rgb(0.0.0)"></rect>
  <path
    d="M0 231L18.6 224.3C37.1 217.7 74.3 204.3 111.4 199.1C148.6 193.9 185.7 196.9 222.9 198.8C260 200.6 297.1 201.3 334.3 199.7C371.4 198 408.6 193.9 445.7 196.7C482.9 199.4 520 209 557.1 212.4C594.3 215.8 631.4 213 668.6 209.8C705.7 206.6 742.9 203.1 780 204.1C817.1 205.2 854.3 210.7 872.9 213.3L900 216L900 300L872.9 300C854.3 300 817.1 300 780 300C742.9 300 705.7 300 668.6 300C631.4 300 594.3 300 557.1 300C520 300 482.9 300 445.7 300C408.6 300 371.4 300 334.3 300C297.1 300 260 300 222.9 300C185.7 300 148.6 300 111.4 300C74.3 300 37.1 300 18.6 300L0 300Z"
    fill="#FFC107"
    stroke-linecap="round"
    stroke-linejoin="miter"
  ></path>
</svg>
